PathFileType	4	(X/Y/Z)	C:\Users\Graham\Documents\MATLAB\MOtoNMS_v2_2\MyData\ElaboratedData\S3\17-05-18\staticElaborations\Static1\Static1\\Static1.trc
DataRate	CameraRate	NumFrames	NumMarkers	Units	OrigDataRate	DataStartFrame
100	100	4	38	mm	100	2
Frame#	Time	V_Sacral			R_ASIS			L_ASIS			R_Knee_Lat			R_Knee_Med			R_Thigh_Upper			R_Thigh_Front			R_Thigh_Rear			L_Knee_Lat			L_Knee_Med			L_Thigh_Upper			L_Thigh_Front			L_Thigh_Rear			R_Ankle_Lat			R_Ankle_Med			R_Shank_Upper			R_Shank_Front			R_Shank_Rear			L_Ankle_Lat			L_Ankle_Med			L_Shank_Upper			L_Shank_Front			L_Shank_Rear			R_Heel			R_MTP1			R_MTP5			L_Heel			L_MTP1			L_MTP5			Clavicle			R_Acromium			L_Acromium			LAJC			RAJC			LHJC			RHJC			LKJC			RKJC		
		X1	Y1	Z1	X2	Y2	Z2	X3	Y3	Z3	X4	Y4	Z4	X5	Y5	Z5	X6	Y6	Z6	X7	Y7	Z7	X8	Y8	Z8	X9	Y9	Z9	X10	Y10	Z10	X11	Y11	Z11	X12	Y12	Z12	X13	Y13	Z13	X14	Y14	Z14	X15	Y15	Z15	X16	Y16	Z16	X17	Y17	Z17	X18	Y18	Z18	X19	Y19	Z19	X20	Y20	Z20	X21	Y21	Z21	X22	Y22	Z22	X23	Y23	Z23	X24	Y24	Z24	X25	Y25	Z25	X26	Y26	Z26	X27	Y27	Z27	X28	Y28	Z28	X29	Y29	Z29	X30	Y30	Z30	X31	Y31	Z31	X32	Y32	Z32	X33	Y33	Z33	X34	Y34	Z34	X35	Y35	Z35	X36	Y36	Z36	X37	Y37	Z37	X38	Y38	Z38	

102	1.010000	-50.477268	1039.757455	54.346991	144.725634	1004.876473	182.557181	144.942680	1003.178002	-63.978560	50.767480	523.082314	177.603132	29.811355	516.744780	62.627185	145.757165	741.186278	180.615993	136.855364	650.336248	140.449613	105.777102	650.611234	183.977261	57.953253	524.241180	-110.086792	55.045328	513.236595	9.332090	151.490164	777.291370	-89.497480	152.674340	675.458653	-54.659726	117.953773	676.707246	-104.255964	-8.525027	99.945798	146.601356	1.211494	111.966201	65.472493	60.518255	319.828982	135.246250	45.044120	226.970144	99.584157	34.968771	223.076408	157.252321	-6.059514	108.896282	-131.370431	5.070025	105.167902	-51.121127	64.591302	302.082911	-82.665968	47.723096	208.899518	-55.798183	53.264532	213.276883	-114.940391	-70.564501	49.589800	106.163867	138.470385	55.662630	81.425268	107.499255	50.990595	159.647724	-70.411714	51.514932	-104.867960	135.496861	53.356228	-76.430816	111.200974	49.915408	-153.493974	79.151739	1402.696901	69.455176	-3.329749	1422.377003	232.013789	17.410756	1439.460212	-107.780527	-0.494745	107.032092	-91.245779	-3.656767	105.956000	106.036924	73.001550	930.311618	-28.926972	72.845447	931.533191	148.386265	56.499290	518.738887	-50.377351	40.289417	519.913547	120.115158	
103	1.020000	-50.487986	1039.775322	54.308696	144.708028	1004.886550	182.496249	144.905402	1003.183693	-64.028750	50.741432	523.088846	177.570475	29.788836	516.740817	62.596116	145.723941	741.191513	180.568641	136.831100	650.341236	140.407682	105.760333	650.621374	183.937002	57.931099	524.244737	-110.117991	55.028797	513.246651	9.304651	151.437095	777.290423	-89.545792	152.644776	675.466849	-54.706400	117.915573	676.711814	-104.299972	-8.524082	99.947217	146.603825	1.210372	111.964318	65.470738	60.509590	319.835430	135.231102	45.033520	226.968676	99.571963	34.962853	223.082158	157.240608	-6.060572	108.894431	-131.375144	5.067685	105.171082	-51.124264	64.579546	302.085550	-82.679551	47.722463	208.910657	-55.810891	53.257253	213.285152	-114.951000	-70.558826	49.588015	106.158366	138.467961	55.665565	81.425513	107.496590	50.990812	159.649194	-70.411939	51.513828	-104.869077	135.494779	53.350402	-76.429671	111.199870	49.914893	-153.495489	79.179181	1402.718605	69.395680	-3.272886	1422.418307	231.964847	17.417932	1439.470818	-107.833083	-0.496444	107.032756	-91.249704	-3.656855	105.955767	106.037282	72.966432	930.325143	-28.971980	72.824476	931.549875	148.334166	56.479948	518.745694	-50.406670	40.265134	519.914832	120.083295	
104	1.030000	-50.501561	1039.793576	54.268190	144.689252	1004.896848	182.433957	144.866837	1003.190382	-64.080193	50.714769	523.093716	177.537880	29.767869	516.735500	62.562259	145.690377	741.197106	180.519346	136.806889	650.345789	140.363367	105.743418	650.632074	183.894005	57.909104	524.247900	-110.150156	55.012019	513.256779	9.277244	151.378149	777.286989	-89.597274	152.615063	675.475309	-54.753948	117.876685	676.716000	-104.344703	-8.523149	99.948758	146.604685	1.208574	111.961057	65.467439	60.500124	319.840993	135.214879	45.023553	226.966966	99.559632	34.956284	223.088566	157.227592	-6.061545	108.892322	-131.379874	5.064510	105.174029	-51.127685	64.567980	302.088405	-82.693513	47.723882	208.922736	-55.823000	53.248292	213.290655	-114.961479	-70.554804	49.586044	106.154045	138.465426	55.668423	81.425036	107.493901	50.990831	159.650865	-70.411944	51.512593	-104.869921	135.493317	53.346396	-76.429580	111.199133	49.914522	-153.496440	79.206408	1402.739723	69.336242	-3.218240	1422.461621	231.915760	17.425404	1439.481866	-107.885862	-0.498517	107.033175	-91.253779	-3.657288	105.954908	106.036062	72.929867	930.339470	-29.018455	72.802144	931.566802	148.280531	56.460562	518.752339	-50.436456	40.241319	519.914608	120.050069	
105	1.040000	-50.518687	1039.811791	54.225622	144.669513	1004.906976	182.370367	144.827223	1003.197630	-64.132976	50.688465	523.097620	177.506013	29.747936	516.728924	62.526400	145.657065	741.202703	180.468607	136.782940	650.349765	140.317475	105.726089	650.643047	183.848898	57.886705	524.250602	-110.183456	54.994380	513.266830	9.249674	151.314333	777.281223	-89.651908	152.584895	675.483856	-54.802370	117.837009	676.719758	-104.390437	-8.522525	99.950280	146.603966	1.206117	111.956596	65.462916	60.489686	319.845548	135.197874	45.014512	226.965431	99.547572	34.949134	223.095436	157.213714	-6.062597	108.889933	-131.384614	5.060713	105.176647	-51.131565	64.556258	302.091544	-82.708341	47.726639	208.935176	-55.834625	53.237068	213.292759	-114.971989	-70.552630	49.583942	106.151250	138.462834	55.671255	81.423910	107.491426	50.990701	159.652577	-70.411824	51.511223	-104.870628	135.492441	53.344475	-76.430500	111.198800	49.914278	-153.496844	79.233181	1402.759591	69.276610	-3.166160	1422.505511	231.866325	17.432743	1439.493064	-107.939242	-0.500942	107.033290	-91.258090	-3.658204	105.953438	106.033441	72.891934	930.354096	-29.066451	72.778505	931.583504	148.225401	56.440542	518.758716	-50.466891	40.218200	519.913272	120.016207	
